# xmcd
#
# Track frame offsets:
#	150
#	2940
#	38087
#	81130
#	116082
#	143272
#	180227
#	217030
#	252830
#	284475
#	321355
# Disc length: 4656 seconds
# Revision: 1
# Processed by: cddbd v1.5.1PL2 Copyright (c) Steve Scherf et al.
#
# Submitted via: libkcddb 0.21
#
DISCID=95122e0b
DTITLE=Patrouille des stars - Corrections
DYEAR=2001
DGENRE=Dance
TTITLE0=Prélude Julien rap
TTITLE1=Corrections
TTITLE2=Zombi
TTITLE3=Sans effet
TTITLE4=Corps et âme
TTITLE5=Pasteur
TTITLE6=Marathon
TTITLE7=C'est mon choix
TTITLE8=Cas grave
TTITLE9=Mr le chancelier
TTITLE10=Le C.M.G.
EXTD=
EXTT0=
EXTT1=
EXTT2=
EXTT3=
EXTT4=
EXTT5=
EXTT6=
EXTT7=
EXTT8=
EXTT9=
EXTT10=
PLAYORDER=
